<svg width="377" height="85" viewBox="0 0 377 85" fill="none" xmlns="http://www.w3.org/2000/svg">
<g clip-path="url(#clip0)">
<path fill-rule="evenodd" clip-rule="evenodd" d="M25.42 34.65H49.49V64.47H61.15V23.69H36.38C33.4626 23.69 30.6647 24.8489 28.6018 26.9118C26.5389 28.9747 25.38 31.7726 25.38 34.69L25.42 34.65ZM31.64 0H76.64V10.87H31.64C26.1388 10.8937 20.8696 13.0895 16.9796 16.9796C13.0895 20.8696 10.8937 26.1388 10.87 31.64V32.84C10.8911 38.3411 13.0864 43.6108 16.9773 47.4998C20.8681 51.3887 26.1389 53.5816 31.64 53.6H44.94V64.47H31.64C23.2568 64.4489 15.2228 61.11 9.29398 55.1831C3.36518 49.2562 0.0237595 41.2232 0 32.84V31.64C0.0211209 23.2551 3.36139 15.2195 9.29047 9.29047C15.2195 3.36139 23.2551 0.0211209 31.64 0Z" fill="#F6980F"/>
<path fill-rule="evenodd" clip-rule="evenodd" d="M55.33 69.35C56.482 69.348 57.6086 69.688 58.5672 70.3267C59.5258 70.9654 60.2733 71.8743 60.715 72.9382C61.1568 74.0021 61.2729 75.1731 61.0487 76.303C60.8244 77.4329 60.2699 78.4708 59.4554 79.2853C58.6408 80.0999 57.6029 80.6544 56.473 80.8787C55.3431 81.1029 54.172 80.9868 53.1082 80.5451C52.0443 80.1033 51.1355 79.3558 50.4967 78.3972C49.858 77.4386 49.5181 76.3119 49.52 75.16C49.5227 73.6199 50.1356 72.1436 51.2246 71.0546C52.3136 69.9656 53.7899 69.3527 55.33 69.35Z" fill="#FF4A4A"/>
<path fill-rule="evenodd" clip-rule="evenodd" d="M14.35 69.35C15.502 69.348 16.6286 69.688 17.5872 70.3267C18.5458 70.9654 19.2933 71.8743 19.7351 72.9382C20.1768 74.0021 20.2929 75.1731 20.0687 76.303C19.8444 77.4329 19.2899 78.4708 18.4754 79.2853C17.6608 80.0999 16.6229 80.6544 15.493 80.8787C14.3631 81.1029 13.1921 80.9868 12.1282 80.5451C11.0643 80.1033 10.1555 79.3558 9.5167 78.3972C8.87795 77.4386 8.53804 76.3119 8.54002 75.16C8.54002 73.6191 9.15212 72.1413 10.2417 71.0517C11.3313 69.9621 12.8091 69.35 14.35 69.35Z" fill="#FF4A4A"/>
<path fill-rule="evenodd" clip-rule="evenodd" d="M229.29 39.65C228.42 42.02 227.54 44.39 226.63 46.76L223.16 55.81H216.91L213.43 46.76C212.523 44.38 211.633 41.99 210.76 39.59C210.91 42.71 211.06 45.85 211.06 48.95V64.43H204.5V25.07H211.09L217.68 40.92C218.54 43 219.3 45.13 220.03 47.26C220.77 45.13 221.53 43 222.39 40.92L229 25.07H235.59V64.43H229V49C229 45.87 229.13 42.79 229.29 39.7V39.65ZM257.52 56.73H248.34L246.6 64.43H239.6L249.49 25.07H256.35L266.24 64.43H259.31L257.51 56.73H257.52ZM282.41 50.57H277V64.43H270.33V25.07H283.66C286.99 25.07 290.18 25.92 292.54 28.38C294.9 30.84 295.7 34.23 295.7 37.6C295.786 40.2963 295.136 42.9652 293.82 45.32C292.727 47.1864 291.066 48.6546 289.08 49.51L297.54 64.43H290.09L282.39 50.57H282.41ZM310.41 48.26L308.53 51.09V64.43H301.91V25.07H308.53V40L309.96 37.44L317.78 25.05H325.61L314.3 42.29L327.13 64.41H319.45L310.45 48.24L310.41 48.26ZM337 58.09H350.76V64.43H330.28V25.07H350.16V31.41H337V41.33H349.17V47.57H337V58.09ZM368.45 31.46V64.46H361.67V31.46H353.76V25.07H376.42V31.46H368.45ZM249.86 50.46H256.15L253.92 40.92C253.54 39.3 253.24 37.67 252.98 36.03C252.71 37.67 252.41 39.31 252.04 40.91L249.86 50.46ZM277.07 31.46V44.17H283.62C284.357 44.2194 285.095 44.1011 285.779 43.824C286.463 43.5468 287.076 43.1181 287.57 42.57C288.569 41.1542 289.052 39.439 288.94 37.71C288.94 34.02 287.66 31.46 283.68 31.46H277.07Z" fill="#F6980F"/>
<path fill-rule="evenodd" clip-rule="evenodd" d="M100.76 48.55H94.7V42.48H107.32V52.78C107.32 56.11 106.47 59.38 104.07 61.78C101.669 63.8728 98.5887 65.0208 95.4037 65.0097C92.2187 64.9987 89.1464 63.8294 86.76 61.72C84.34 59.24 83.57 55.86 83.57 52.48V36.94C83.57 33.59 84.31 30.21 86.7 27.73C87.8373 26.6192 89.1918 25.7554 90.6785 25.1927C92.1653 24.63 93.7523 24.3805 95.34 24.46C96.8898 24.3822 98.4389 24.6243 99.891 25.1714C101.343 25.7186 102.667 26.5589 103.78 27.64C106.11 30.06 106.92 33.38 107.05 36.64V37.24H100.44V36.69C100.27 33.31 99 30.91 95.35 30.91C91.5 30.91 90.35 33.47 90.35 36.99V52.49C90.35 56.1 91.61 58.57 95.5 58.57C99.39 58.57 100.76 56.41 100.76 52.76V48.54V48.55ZM133.6 61.55C131.179 63.8724 127.955 65.1692 124.6 65.1692C121.245 65.1692 118.021 63.8724 115.6 61.55C113.15 58.85 112.34 55.31 112.34 51.74V37.74C112.34 34.18 113.15 30.63 115.6 27.94C118.027 25.629 121.249 24.34 124.6 24.34C127.951 24.34 131.173 25.629 133.6 27.94C136.06 30.63 136.86 34.18 136.86 37.74V51.74C136.86 55.31 136.06 58.85 133.6 61.55ZM163.6 61.55C161.179 63.8724 157.955 65.1692 154.6 65.1692C151.245 65.1692 148.021 63.8724 145.6 61.55C143.14 58.85 142.34 55.31 142.34 51.74V37.74C142.34 34.18 143.14 30.63 145.6 27.94C148.021 25.6176 151.245 24.3208 154.6 24.3208C157.955 24.3208 161.179 25.6176 163.6 27.94C166.06 30.63 166.87 34.18 166.87 37.74V51.74C166.87 55.31 166.06 58.85 163.6 61.55ZM173.42 64.44V25.07H185.61C189 25.07 192.26 25.92 194.7 28.38C197.14 30.84 197.98 34.15 197.98 37.54V51.84C197.98 55.26 197.16 58.6 194.7 61.09C192.24 63.58 189.05 64.43 185.7 64.43L173.42 64.44ZM124.63 58.59C125.383 58.6381 126.137 58.5094 126.832 58.2142C127.526 57.9191 128.142 57.4656 128.63 56.89C129.657 55.3768 130.153 53.5654 130.04 51.74V37.74C130.151 35.9148 129.655 34.1042 128.63 32.59C128.141 32.0156 127.525 31.5636 126.831 31.2701C126.136 30.9767 125.382 30.8499 124.63 30.9C120.36 30.9 119.21 33.95 119.21 37.74V51.74C119.21 55.53 120.36 58.59 124.63 58.59ZM154.63 58.59C155.383 58.6365 156.136 58.5071 156.831 58.2121C157.525 57.917 158.141 57.4644 158.63 56.89C159.65 55.3737 160.142 53.5638 160.03 51.74V37.74C160.144 35.9159 159.652 34.1054 158.63 32.59C158.14 32.0175 157.523 31.5667 156.829 31.2734C156.135 30.9801 155.382 30.8523 154.63 30.9C150.35 30.9 149.2 33.95 149.2 37.74V51.74C149.2 55.53 150.35 58.59 154.63 58.59ZM180.11 58.04H185.69C186.449 58.0856 187.21 57.9702 187.922 57.7014C188.633 57.4325 189.28 57.0163 189.82 56.48C190.872 55.1333 191.389 53.4448 191.27 51.74V37.65C191.27 33.78 189.74 31.46 185.69 31.46H180.11V58V58.04Z" fill="#FF4A4A"/>
<path d="M84.37 81.55H86.09C86.3206 81.9723 86.6677 82.3194 87.09 82.55C87.5187 82.7727 87.997 82.8829 88.48 82.87C88.8806 82.8882 89.2809 82.8259 89.657 82.6868C90.0332 82.5477 90.3776 82.3345 90.67 82.06C90.9517 81.7739 91.1709 81.4324 91.3138 81.0571C91.4567 80.6819 91.5201 80.281 91.5 79.88V79.77C91.1135 80.1946 90.6438 80.535 90.12 80.77C89.6088 80.9916 89.0571 81.104 88.5 81.1C87.8772 81.1181 87.2574 81.0076 86.6792 80.7753C86.1011 80.543 85.5771 80.194 85.14 79.75C84.6996 79.3065 84.3538 78.7783 84.1235 78.1974C83.8932 77.6164 83.7831 76.9947 83.8 76.37C83.7957 75.7536 83.9112 75.1423 84.14 74.57C84.5883 73.4392 85.4601 72.5279 86.57 72.03C87.1515 71.7968 87.7735 71.6813 88.4 71.69C88.9799 71.6844 89.5548 71.7966 90.09 72.02C90.6288 72.2543 91.115 72.5943 91.52 73.02V71.94H93.14V79.43C93.189 80.7334 92.7464 82.0076 91.9 83C91.473 83.4507 90.9531 83.803 90.3764 84.0327C89.7996 84.2623 89.1798 84.3638 88.56 84.33C87.6294 84.3602 86.7118 84.1056 85.93 83.6C85.1964 83.1048 84.6477 82.3804 84.37 81.54V81.55ZM85.45 76.28C85.4375 76.7027 85.5108 77.1236 85.6655 77.5172C85.8202 77.9107 86.053 78.2689 86.3499 78.57C86.6354 78.8668 86.979 79.1017 87.3592 79.26C87.7394 79.4183 88.1482 79.4966 88.56 79.49C88.9543 79.488 89.344 79.4054 89.7051 79.2472C90.0663 79.0889 90.3912 78.8585 90.6599 78.57C90.95 78.2883 91.1802 77.9509 91.3366 77.5779C91.493 77.205 91.5724 76.8044 91.57 76.4C91.5778 75.9824 91.5023 75.5674 91.3478 75.1793C91.1932 74.7912 90.9628 74.4379 90.67 74.14C90.3993 73.8411 90.069 73.6022 89.7005 73.4386C89.3319 73.275 88.9332 73.1903 88.53 73.19C88.1243 73.1887 87.7224 73.2678 87.3474 73.4227C86.9725 73.5776 86.632 73.8054 86.3456 74.0927C86.0592 74.38 85.8326 74.7213 85.6789 75.0967C85.5251 75.4721 85.4473 75.8743 85.45 76.28Z" fill="#9D9E9E"/>
<path d="M104.11 76.33C104.098 76.7432 104.168 77.1546 104.316 77.5407C104.463 77.9269 104.686 78.28 104.97 78.58C105.239 78.8728 105.567 79.1046 105.932 79.2599C106.298 79.4151 106.693 79.4902 107.09 79.48C107.483 79.4886 107.874 79.4116 108.235 79.2545C108.596 79.0974 108.918 78.8639 109.18 78.57C109.463 78.2695 109.684 77.9161 109.83 77.5299C109.976 77.1438 110.044 76.7326 110.03 76.32C110.045 75.9073 109.978 75.4956 109.832 75.1092C109.686 74.7228 109.464 74.3695 109.18 74.07C108.914 73.7795 108.589 73.5497 108.227 73.3961C107.865 73.2425 107.473 73.1688 107.08 73.18C106.684 73.1706 106.291 73.2461 105.927 73.4013C105.563 73.5566 105.237 73.788 104.97 74.08C104.686 74.38 104.463 74.7332 104.316 75.1193C104.168 75.5054 104.098 75.9168 104.11 76.33ZM102.44 76.33C102.435 75.721 102.547 75.1166 102.77 74.55C102.999 73.9906 103.339 73.4836 103.77 73.06C104.198 72.5933 104.715 72.2161 105.29 71.95C105.839 71.6843 106.441 71.5475 107.05 71.55C107.671 71.5388 108.288 71.6565 108.861 71.8958C109.434 72.135 109.951 72.4906 110.38 72.94C110.803 73.3812 111.142 73.8964 111.38 74.46C111.61 75.0183 111.729 75.6162 111.73 76.22C111.73 76.8318 111.619 77.4386 111.4 78.01C110.953 79.1801 110.072 80.1327 108.94 80.67C108.369 80.9298 107.748 81.0628 107.12 81.06C106.496 81.0648 105.878 80.9458 105.3 80.71C104.738 80.4629 104.232 80.1059 103.81 79.66C103.38 79.2164 103.04 78.6934 102.81 78.12C102.573 77.553 102.451 76.9446 102.45 76.33H102.44Z" fill="#9D9E9E"/>
<path d="M122.21 76.33C122.196 76.7426 122.264 77.1538 122.41 77.5399C122.556 77.9261 122.777 78.2795 123.06 78.58C123.33 78.8713 123.658 79.1021 124.024 79.2572C124.389 79.4123 124.783 79.4883 125.18 79.48C125.575 79.4894 125.967 79.4128 126.33 79.2557C126.693 79.0986 127.017 78.8646 127.28 78.57C127.844 77.9592 128.146 77.1512 128.12 76.32C128.149 75.4883 127.847 74.6791 127.28 74.07C127.007 73.7863 126.679 73.5606 126.316 73.4065C125.954 73.2524 125.564 73.173 125.17 73.173C124.776 73.173 124.386 73.2524 124.024 73.4065C123.661 73.5606 123.333 73.7863 123.06 74.07C122.777 74.3705 122.556 74.724 122.41 75.1101C122.264 75.4963 122.196 75.9075 122.21 76.32V76.33ZM120.54 76.33C120.536 75.722 120.645 75.1186 120.86 74.55C121.074 73.9948 121.397 73.4882 121.81 73.06C122.242 72.5931 122.762 72.2159 123.34 71.95C123.886 71.6858 124.484 71.549 125.09 71.55C125.714 71.5452 126.332 71.6642 126.91 71.9C127.474 72.1312 127.987 72.4709 128.42 72.9C128.843 73.3413 129.182 73.8565 129.42 74.42C129.655 74.9769 129.774 75.5757 129.77 76.18C129.77 76.7918 129.659 77.3986 129.44 77.97C129.231 78.5299 128.919 79.0456 128.52 79.49C128.092 79.973 127.567 80.3613 126.98 80.63C126.409 80.891 125.788 81.0241 125.16 81.02C124.539 81.0248 123.924 80.9058 123.35 80.67C122.784 80.4258 122.273 80.0685 121.85 79.62C121.427 79.1711 121.088 78.6494 120.85 78.08C120.616 77.5124 120.497 76.904 120.5 76.29L120.54 76.33Z" fill="#9D9E9E"/>
<path d="M140.37 76.28C140.358 76.7027 140.431 77.1236 140.586 77.5172C140.74 77.9107 140.973 78.2689 141.27 78.57C141.552 78.869 141.893 79.1055 142.272 79.2639C142.651 79.4224 143.059 79.4994 143.47 79.49C143.865 79.4898 144.255 79.408 144.616 79.2496C144.978 79.0913 145.302 78.8599 145.57 78.57C145.86 78.2883 146.09 77.9508 146.247 77.5779C146.403 77.205 146.482 76.8044 146.48 76.4C146.488 75.9824 146.412 75.5674 146.258 75.1793C146.103 74.7912 145.873 74.4379 145.58 74.14C145.311 73.8397 144.981 73.5997 144.612 73.436C144.243 73.2722 143.844 73.1884 143.44 73.19C143.035 73.19 142.634 73.2701 142.261 73.4256C141.887 73.5811 141.547 73.8091 141.262 74.0963C140.977 74.3835 140.751 74.7242 140.598 75.099C140.445 75.4738 140.367 75.8752 140.37 76.28ZM146.37 80.83V79.73C145.982 80.1525 145.512 80.4926 144.99 80.73C144.475 80.9513 143.92 81.0636 143.36 81.06C142.737 81.0781 142.117 80.9676 141.539 80.7353C140.961 80.503 140.437 80.154 140 79.71C139.561 79.266 139.217 78.7375 138.988 78.1565C138.759 77.5755 138.651 76.9541 138.67 76.33C138.668 75.7148 138.78 75.1046 139 74.53C139.448 73.3992 140.32 72.4879 141.43 71.99C142.012 71.7586 142.634 71.6431 143.26 71.65C143.858 71.6429 144.451 71.7622 145 72C145.541 72.2364 146.03 72.5761 146.44 73V69H148V80.88L146.37 80.83Z" fill="#9D9E9E"/>
<path d="M163.39 76.3C163.45 75.4799 163.292 74.6586 162.93 73.92C162.773 73.6766 162.554 73.4796 162.296 73.3494C162.037 73.2193 161.749 73.1608 161.46 73.18C161.163 73.1593 160.865 73.2167 160.597 73.3465C160.328 73.4763 160.098 73.674 159.93 73.92C159.543 74.629 159.37 75.4346 159.43 76.24V80.83H157.89V71.83H159.33V72.88C159.594 72.5113 159.936 72.2042 160.33 71.98C160.729 71.7756 161.172 71.6726 161.62 71.68C162.186 71.6591 162.748 71.7867 163.25 72.05C163.71 72.3325 164.078 72.7424 164.31 73.23C164.559 72.7442 164.94 72.3387 165.41 72.06C165.929 71.7946 166.507 71.6639 167.09 71.68C167.545 71.6611 167.998 71.7407 168.419 71.9133C168.84 72.0859 169.219 72.3474 169.53 72.68C170.168 73.411 170.498 74.3609 170.45 75.33V80.81H168.83V75.6C168.871 74.9656 168.691 74.3365 168.32 73.82C168.155 73.6088 167.942 73.4405 167.698 73.3291C167.454 73.2177 167.188 73.1665 166.92 73.18C166.632 73.1541 166.342 73.202 166.078 73.3192C165.814 73.4365 165.584 73.6192 165.41 73.85C165.046 74.5554 164.886 75.3487 164.95 76.14V80.83H163.38V76.3H163.39Z" fill="#9D9E9E"/>
<path d="M181.57 76.28C181.558 76.7027 181.631 77.1236 181.786 77.5172C181.94 77.9107 182.173 78.2689 182.47 78.57C182.752 78.869 183.093 79.1055 183.472 79.2639C183.851 79.4224 184.259 79.4994 184.67 79.49C185.065 79.4898 185.455 79.408 185.816 79.2496C186.178 79.0913 186.502 78.8599 186.77 78.57C187.06 78.2883 187.29 77.9509 187.447 77.5779C187.603 77.205 187.682 76.8044 187.68 76.4C187.688 75.9824 187.612 75.5674 187.458 75.1793C187.303 74.7912 187.073 74.4379 186.78 74.14C186.511 73.8397 186.18 73.5997 185.812 73.436C185.443 73.2722 185.044 73.1884 184.64 73.19C184.235 73.19 183.834 73.2701 183.461 73.4256C183.087 73.5811 182.747 73.8091 182.462 74.0963C182.177 74.3835 181.951 74.7243 181.798 75.099C181.645 75.4738 181.567 75.8752 181.57 76.28ZM187.57 80.83V79.73C187.184 80.1546 186.714 80.495 186.19 80.73C185.675 80.9513 185.12 81.0637 184.56 81.06C183.937 81.0763 183.318 80.965 182.74 80.7328C182.162 80.5006 181.638 80.1525 181.2 79.71C180.761 79.266 180.417 78.7375 180.188 78.1565C179.959 77.5755 179.851 76.9541 179.87 76.33C179.868 75.7148 179.98 75.1046 180.2 74.53C180.417 73.9763 180.739 73.4701 181.15 73.04C181.572 72.5943 182.078 72.2373 182.64 71.99C183.222 71.7568 183.844 71.6413 184.47 71.65C185.05 71.6444 185.625 71.7567 186.16 71.98C186.694 72.2122 187.174 72.5527 187.57 72.98V71.9H189.21V80.9L187.57 80.83Z" fill="#9D9E9E"/>
<path d="M200.71 80.83H199.09V71.83H200.62V72.83C200.847 72.4667 201.159 72.1646 201.53 71.95C201.9 71.7447 202.317 71.6412 202.74 71.65V73.33C202.451 73.3288 202.164 73.3848 201.896 73.4946C201.629 73.6044 201.385 73.766 201.18 73.97C200.825 74.4999 200.659 75.1342 200.71 75.77V80.77V80.83Z" fill="#9D9E9E"/>
<path d="M211.87 80.83V68.95H213.48V76.02L216.68 71.86H218.56L215.26 76.11L219.16 80.83H217.09L213.48 76.27V80.83H211.87Z" fill="#9D9E9E"/>
<path d="M234.5 75.48C234.352 74.8201 234.003 74.2225 233.5 73.77C232.999 73.359 232.367 73.1424 231.72 73.16C231.054 73.1491 230.404 73.3681 229.88 73.78C229.353 74.2199 228.979 74.8149 228.81 75.48H234.5ZM228.72 76.94C228.826 77.6464 229.181 78.2917 229.72 78.76C230.043 79.0477 230.426 79.2587 230.842 79.3773C231.258 79.4959 231.695 79.5191 232.121 79.445C232.547 79.371 232.951 79.2017 233.302 78.9497C233.653 78.6978 233.943 78.3697 234.15 77.99H236C235.654 78.9001 235.053 79.6915 234.27 80.27C233.512 80.8015 232.605 81.0782 231.68 81.06C231.056 81.0715 230.436 80.9523 229.86 80.71C229.299 80.4849 228.791 80.1442 228.37 79.71C227.741 79.042 227.313 78.2098 227.136 77.3092C226.959 76.4087 227.04 75.4764 227.37 74.62C227.59 74.0648 227.912 73.556 228.32 73.12C228.732 72.6494 229.235 72.2682 229.8 72C230.439 71.7329 231.129 71.6106 231.82 71.6417C232.512 71.6728 233.188 71.8566 233.8 72.18C234.478 72.5471 235.055 73.0761 235.48 73.72C235.743 74.133 235.939 74.5854 236.06 75.06C236.187 75.604 236.247 76.1614 236.24 76.72V76.98L228.72 76.94Z" fill="#9D9E9E"/>
<path d="M246.19 80.83V73.33H244.93V71.86H246.19V68.95H247.8V71.86H249.07V73.33H247.8V80.83H246.19Z" fill="#9D9E9E"/>
<path d="M260.46 80.83H258.82V78.82H260.46V80.83Z" fill="#9D9E9E"/>
<path d="M279.47 77.77C279.176 78.7404 278.593 79.5983 277.8 80.23C277.016 80.7959 276.067 81.0876 275.1 81.06C274.477 81.0698 273.858 80.9542 273.28 80.72C272.728 80.489 272.228 80.1488 271.81 79.72C271.384 79.2728 271.045 78.7507 270.81 78.18C270.581 77.611 270.462 77.0035 270.46 76.39C270.458 75.7887 270.567 75.1921 270.78 74.63C271.018 74.0754 271.357 73.57 271.78 73.14C272.204 72.6609 272.721 72.273 273.3 72C273.884 71.7468 274.514 71.6174 275.15 71.62C276.113 71.5973 277.056 71.8965 277.83 72.47C278.61 73.0782 279.183 73.9131 279.47 74.86H277.7C277.461 74.3544 277.083 73.9276 276.61 73.63C276.126 73.3463 275.571 73.2043 275.01 73.22C274.631 73.2185 274.256 73.2991 273.91 73.4561C273.565 73.6132 273.258 73.8431 273.01 74.13C272.465 74.749 272.165 75.5454 272.165 76.37C272.165 77.1947 272.465 77.991 273.01 78.61C273.277 78.902 273.604 79.1335 273.967 79.2887C274.331 79.444 274.724 79.5194 275.12 79.51C275.664 79.5175 276.197 79.3606 276.65 79.06C277.124 78.7559 277.497 78.3171 277.72 77.8L279.47 77.77Z" fill="#9D9E9E"/>
<path d="M290.2 76.33C290.186 76.7425 290.254 77.1538 290.4 77.5399C290.546 77.9261 290.767 78.2795 291.05 78.58C291.321 78.872 291.651 79.1032 292.018 79.2583C292.386 79.4135 292.782 79.489 293.18 79.48C293.573 79.4885 293.964 79.4116 294.325 79.2545C294.686 79.0974 295.008 78.8638 295.27 78.57C295.834 77.9592 296.136 77.1511 296.11 76.32C296.139 75.4883 295.837 74.679 295.27 74.07C294.997 73.7863 294.669 73.5606 294.306 73.4065C293.944 73.2523 293.554 73.1729 293.16 73.1729C292.766 73.1729 292.376 73.2523 292.014 73.4065C291.651 73.5606 291.323 73.7863 291.05 74.07C290.767 74.3705 290.546 74.7239 290.4 75.1101C290.254 75.4962 290.186 75.9074 290.2 76.32V76.33ZM288.53 76.33C288.526 75.722 288.635 75.1186 288.85 74.55C289.068 73.9967 289.39 73.4907 289.8 73.06C290.232 72.593 290.752 72.2158 291.33 71.95C291.879 71.6843 292.481 71.5475 293.09 71.55C293.709 71.5401 294.324 71.6585 294.895 71.8978C295.467 72.137 295.982 72.4918 296.41 72.94C296.833 73.3812 297.172 73.8964 297.41 74.46C297.645 75.0169 297.764 75.6157 297.76 76.22C297.76 76.8318 297.649 77.4385 297.43 78.01C297.225 78.5719 296.913 79.0882 296.51 79.53C296.082 80.013 295.557 80.4013 294.97 80.67C294.402 80.9299 293.784 81.063 293.16 81.06C292.536 81.0655 291.917 80.9465 291.34 80.71C290.777 80.4655 290.27 80.1082 289.85 79.66C289.424 79.2128 289.085 78.6906 288.85 78.12C288.621 77.551 288.502 76.9435 288.5 76.33H288.53Z" fill="#9D9E9E"/>
<path d="M312.65 76.3C312.71 75.4799 312.552 74.6586 312.19 73.92C312.033 73.6766 311.814 73.4796 311.556 73.3494C311.297 73.2193 311.009 73.1608 310.72 73.18C310.423 73.1603 310.125 73.2181 309.857 73.3478C309.589 73.4775 309.359 73.6747 309.19 73.92C308.807 74.6305 308.634 75.4349 308.69 76.24V80.83H307.16V71.83H308.6V72.88C308.861 72.5082 309.203 72.2004 309.6 71.98C309.998 71.7732 310.442 71.6701 310.89 71.68C311.453 71.6575 312.012 71.7852 312.51 72.05C312.971 72.3349 313.341 72.7439 313.58 73.23C313.823 72.7399 314.206 72.3328 314.68 72.06C315.199 71.7945 315.777 71.6639 316.36 71.68C316.813 71.6619 317.265 71.7419 317.684 71.9145C318.104 72.0871 318.481 72.3482 318.79 72.68C319.428 73.411 319.758 74.3609 319.71 75.33V80.81H318.1V75.6C318.139 74.9672 317.963 74.3399 317.6 73.82C317.413 73.6202 317.187 73.4609 316.936 73.352C316.685 73.2431 316.414 73.1869 316.14 73.1869C315.866 73.1869 315.595 73.2431 315.344 73.352C315.093 73.4609 314.867 73.6202 314.68 73.82C314.32 74.5269 314.161 75.3189 314.22 76.11V80.8H312.65V76.3Z" fill="#9D9E9E"/>
<path d="M331.87 80.83H330.23V78.82H331.87V80.83Z" fill="#9D9E9E"/>
<path d="M349.85 80.83H348.29V79.83C348 80.2052 347.631 80.5124 347.21 80.73C346.793 80.9323 346.334 81.0349 345.87 81.03C345.385 81.0654 344.899 80.9942 344.444 80.8214C343.99 80.6487 343.579 80.3785 343.24 80.03C342.565 79.1821 342.233 78.1113 342.31 77.03V71.87H343.93V76.56C343.874 77.3229 344.056 78.0843 344.45 78.74C344.623 78.9835 344.855 79.1786 345.124 79.3065C345.394 79.4343 345.692 79.4906 345.99 79.47C346.387 79.4763 346.778 79.3725 347.12 79.17C347.458 78.9665 347.732 78.6719 347.91 78.32C348.041 78.0627 348.129 77.7857 348.17 77.5C348.228 76.9956 348.252 76.4877 348.24 75.98V71.87H349.85V80.87V80.83Z" fill="#9D9E9E"/>
<path d="M361 76.28C360.988 76.7027 361.061 77.1236 361.215 77.5171C361.37 77.9107 361.603 78.2689 361.9 78.57C362.185 78.8668 362.529 79.1017 362.909 79.26C363.289 79.4182 363.698 79.4965 364.11 79.49C364.504 79.488 364.894 79.4054 365.255 79.2471C365.616 79.0889 365.941 78.8585 366.21 78.57C366.498 78.2874 366.727 77.9496 366.881 77.5767C367.036 77.2039 367.114 76.8036 367.11 76.4C367.12 75.9821 367.046 75.5664 366.891 75.178C366.736 74.7896 366.505 74.4366 366.21 74.14C365.942 73.8404 365.614 73.6008 365.247 73.4371C364.88 73.2734 364.482 73.1892 364.08 73.19C363.674 73.1887 363.272 73.2677 362.897 73.4227C362.522 73.5776 362.182 73.8053 361.896 74.0927C361.609 74.38 361.383 74.7213 361.229 75.0967C361.075 75.4721 360.997 75.8743 361 76.28ZM367 80.83V79.73C366.614 80.1546 366.144 80.495 365.62 80.73C365.104 80.9311 364.553 81.023 364 81C363.377 81.0181 362.757 80.9076 362.179 80.6753C361.601 80.443 361.077 80.094 360.64 79.65C360.2 79.2065 359.854 78.6783 359.624 78.0973C359.393 77.5164 359.283 76.8947 359.3 76.27C359.298 75.6548 359.41 75.0446 359.63 74.47C359.862 73.9124 360.202 73.406 360.63 72.98C361.046 72.5325 361.55 72.1751 362.11 71.93C362.691 71.6968 363.314 71.5813 363.94 71.59C364.52 71.5804 365.096 71.693 365.63 71.9204C366.164 72.1478 366.645 72.4849 367.04 72.91V71.83H368.68V80.83H367Z" fill="#9D9E9E"/>
</g>
<defs>
<clipPath id="clip0">
<rect width="376.37" height="84.34" fill="white"/>
</clipPath>
</defs>
</svg>
