<svg xmlns="http://www.w3.org/2000/svg"><symbol id="sprite-about_us" viewBox="0 0 15 15"><title>about_us</title><path d="M15 5.89c0-.222-.168-.36-.505-.414L9.97 4.818 7.942.717C7.828.47 7.68.347 7.5.347s-.327.123-.442.37L5.03 4.818l-4.525.658C.168 5.53 0 5.668 0 5.891c0 .126.075.27.225.433l3.282 3.19-.776 4.508a1.462 1.462 0 0 0-.018.18c0 .126.032.233.095.32.063.088.158.131.284.131a.765.765 0 0 0 .36-.108L7.5 12.417l4.047 2.128a.73.73 0 0 0 .361.108c.247 0 .37-.15.37-.45 0-.079-.003-.139-.01-.181l-.774-4.507 3.272-3.191c.156-.157.234-.301.234-.433zm-4.75 3.22l.648 3.794L7.5 11.11l-3.408 1.794.659-3.795-2.759-2.677 3.804-.56L7.5 2.43l1.704 3.444 3.804.559L10.25 9.11z"/></symbol><symbol id="sprite-arrow-down" viewBox="0 0 14.14 7.86"><title>arrow-down</title><path d="M6.56 7.66L.2 1.24a.74.74 0 0 1 0-1 .7.7 0 0 1 1 0l5.86 5.91L12.91.24a.7.7 0 0 1 1 0 .72.72 0 0 1 0 1L7.55 7.66a.73.73 0 0 1-.99 0z" fill="#2c2c2c"/></symbol><symbol id="sprite-arrow-left" viewBox="0 0 7.86 14.14"><title>arrow-left</title><path d="M.2 6.57L6.62.21a.72.72 0 0 1 1 0 .7.7 0 0 1 0 1L1.73 7.08l5.91 5.86a.69.69 0 0 1 0 1 .74.74 0 0 1-1 0L.22 7.58A.73.73 0 0 1 .2 6.57z" fill="#fff"/></symbol><symbol id="sprite-arrow-right" viewBox="0 0 7.86 14.14"><title>arrow-right</title><path d="M7.65 7.58l-6.42 6.36a.74.74 0 0 1-1 0 .71.71 0 0 1 0-1l5.89-5.86L.21 1.23a.71.71 0 0 1 0-1 .72.72 0 0 1 1 0l6.42 6.36a.71.71 0 0 1 .02.99z" fill="#2c2c2c"/></symbol><symbol id="sprite-arrow-up" viewBox="0 0 14.14 7.86"><title>arrow-up</title><path d="M7.57.21l6.36 6.42a.72.72 0 0 1 0 1 .71.71 0 0 1-1 0L7.08 1.72 1.23 7.63a.71.71 0 0 1-1 0 .72.72 0 0 1 0-1L6.58.21a.71.71 0 0 1 .99 0z" fill="#2c2c2c"/></symbol><symbol id="sprite-bonum" viewBox="0 0 512 80"><title>bonum</title><path class="st0" d="M225.8 40.7c0 21.8-16.2 37.5-38.7 37.5-22.4 0-38.8-15.7-38.8-37.5s16.4-37.5 38.8-37.5 38.7 15.7 38.7 37.5zm-62 0c0 14.3 9.7 24.4 23.2 24.4 13.6 0 23.3-10.1 23.3-24.4 0-14.1-9.7-24.4-23.3-24.4-13.5 0-23.2 10.3-23.2 24.4zM95.2 3.2c-22.4 0-38.8 15.7-38.8 37.5 0 8.5 2.5 16 6.9 22.1H7.6c-4.3 0-7.7 3.5-7.7 7.7v7.7h95.4c22.4 0 38.7-15.7 38.7-37.5-.1-21.8-16.3-37.5-38.8-37.5zm-.1 61.9c-13.4 0-23.2-10.1-23.2-24.4 0-14.1 9.7-24.4 23.2-24.4 13.6 0 23.3 10.3 23.3 24.4 0 14.3-9.7 24.4-23.3 24.4zm212.6 5.4V35.1c0-19-13.8-31.9-34-31.9-20 0-33.7 12.9-33.7 31.9v35.4c0 4.3 3.5 7.7 7.7 7.7h7.7V35.1c0-11.5 7.2-19.2 18.3-19.2S292 23.5 292 35.1v35.4c0 4.3 3.5 7.7 7.7 7.7h7.7v-7.7h.3zm81.9-61.1V3.2H382c-4.3 0-7.7 3.5-7.7 7.7v35.5c0 11.5-7.4 19-18.5 19s-18.3-7.5-18.3-19V3.2h-7.6c-4.3 0-7.7 3.4-7.7 7.7v35.6c0 18.9 13.7 31.7 33.8 31.7 20 0 33.7-12.9 33.7-31.7V12.4l-.1-3zm93.7-6.2c-11.7 0-20.9 5.2-25.4 13.9-4.5-8.7-13.7-13.9-25.4-13.9-17.3 0-28.5 11.5-28.5 29v38.2c0 4.3 3.5 7.7 7.7 7.7h7.7V31.8c0-9.7 6-16.3 15.3-16.3s15.5 6.6 15.5 16.3v38.7c0 4.3 3.5 7.7 7.7 7.7h7.6V31.8c0-9.7 6.2-16.3 15.5-16.3s15.3 6.6 15.3 16.3v38.7c0 4.3 3.5 7.7 7.7 7.7h7.7v-46c.1-17.5-11.2-29-28.4-29z"/></symbol><symbol id="sprite-burger" viewBox="0 0 32 32"><title/><path d="M28 10H4a1 1 0 0 1 0-2h24a1 1 0 0 1 0 2zm0 7H4a1 1 0 0 1 0-2h24a1 1 0 0 1 0 2zm0 7H4a1 1 0 0 1 0-2h24a1 1 0 0 1 0 2z" data-name="Layer 2"/><path fill="none" d="M0 0h32v32H0z"/></symbol><symbol id="sprite-calendar" viewBox="0 0 512 512"><title>calendar</title><path d="M452 40h-24V0h-40v40H124V0H84v40H60C26.916 40 0 66.916 0 100v352c0 33.084 26.916 60 60 60h392c33.084 0 60-26.916 60-60V100c0-33.084-26.916-60-60-60zm20 412c0 11.028-8.972 20-20 20H60c-11.028 0-20-8.972-20-20V188h432v264zm0-304H40v-48c0-11.028 8.972-20 20-20h24v40h40V80h264v40h40V80h24c11.028 0 20 8.972 20 20v48z"/><path d="M76 230h40v40H76zM156 230h40v40h-40zM236 230h40v40h-40zM316 230h40v40h-40zM396 230h40v40h-40zM76 310h40v40H76zM156 310h40v40h-40zM236 310h40v40h-40zM316 310h40v40h-40zM76 390h40v40H76zM156 390h40v40h-40zM236 390h40v40h-40zM316 390h40v40h-40zM396 310h40v40h-40z"/></symbol><symbol id="sprite-cart_bought" viewBox="0 0 35 29"><title>cart_bought</title><path d="M19.794 22.706a3.12 3.12 0 0 0-3.117 3.117 3.12 3.12 0 0 0 3.117 3.117 3.12 3.12 0 0 0 3.118-3.117 3.12 3.12 0 0 0-3.118-3.117zm0 4.364a1.248 1.248 0 0 1 0-2.494 1.248 1.248 0 0 1 0 2.494zm5.007-16.412a.934.934 0 0 0-.736-.359H5.772l-.841-3.521a.936.936 0 0 0-.91-.718H.935a.935.935 0 1 0 0 1.87h2.348l3.04 12.717c.1.421.476.718.909.718h14.557c.43 0 .805-.293.908-.71l2.276-9.196a.937.937 0 0 0-.172-.801zm-3.743 8.837H7.97l-1.75-7.326h16.65l-1.812 7.326zM8.479 22.706a3.12 3.12 0 0 0-3.117 3.117 3.12 3.12 0 0 0 3.117 3.117 3.12 3.12 0 0 0 3.117-3.117 3.12 3.12 0 0 0-3.117-3.117zm0 4.364a1.248 1.248 0 1 1 1.247-1.247c0 .688-.56 1.247-1.247 1.247z" fill="#F6980F"/><circle cx="24" cy="11" r="10.5" fill="#FF4C4C" stroke="#fff"/><path d="M18.139 11.461A.498.498 0 0 1 18 11.14c0-.093.046-.231.139-.324l.646-.646a.446.446 0 0 1 .646 0l.046.046 2.538 2.723a.222.222 0 0 0 .323 0l6.185-6.415h.046a.446.446 0 0 1 .646 0l.646.646a.446.446 0 0 1 0 .646l-7.384 7.662a.419.419 0 0 1-.323.138.419.419 0 0 1-.323-.138l-3.6-3.877-.093-.139z" fill="#fff"/></symbol><symbol id="sprite-checked" viewBox="0 0 26 26"><title>checked</title><path d="M.3 14c-.2-.2-.3-.5-.3-.7 0-.2.1-.5.3-.7l1.4-1.4c.4-.4 1-.4 1.4 0l.1.1 5.5 5.9c.2.2.5.2.7 0L22.8 3.3h.1c.4-.4 1-.4 1.4 0l1.4 1.4c.4.4.4 1 0 1.4l-16 16.6c-.2.2-.4.3-.7.3-.3 0-.5-.1-.7-.3L.5 14.3.3 14z" fill="#fff"/></symbol><symbol id="sprite-close" viewBox="0 0 512 512"><title>close</title><path d="M284.3 245.1l110.9-110.9c7.8-7.8 7.8-20.5 0-28.3s-20.5-7.8-28.3 0L256 216.8 145.1 105.9c-7.8-7.8-20.5-7.8-28.3 0s-7.8 20.5 0 28.3l110.9 110.9-110.8 110.8c-7.8 7.8-7.8 20.5 0 28.3 3.9 3.9 9 5.9 14.1 5.9s10.2-2 14.1-5.9L256 273.3l110.9 110.9c3.9 3.9 9 5.9 14.1 5.9s10.2-2 14.1-5.9c7.8-7.8 7.8-20.5 0-28.3L284.3 245.1z" fill="#231f20"/></symbol><symbol id="sprite-courier" viewBox="0 0 19 19"><title>courier</title><path d="M17.48 14.034V1.051H3.347l-.008 8.947H0v7.951h4.497v-.855H17.47c.844 0 1.53-.686 1.53-1.53 0-.84-.68-1.524-1.52-1.53zM3.335 12.06v4.727H1.162V11.16h2.173v.9zm6.376-9.847h1.065v1.542H9.71V2.213zm-5.203 0h4.04v2.704h3.39V2.213h4.38v11.82h-5.976a.245.245 0 0 1 0-.488h2.08a1.6 1.6 0 0 0 1.599-1.6c0-.786-.587-1.466-1.366-1.58l-1.81-.267c-1.698-.25-2.775-.007-4.167.53L4.5 11.56l.008-9.348zM17.47 15.932H4.497V14.32l.002-1.495 2.607-1.117c1.42-.546 2.256-.654 3.57-.46l1.81.266a.437.437 0 0 1-.064.869h-2.08a1.408 1.408 0 0 0 0 2.813h7.128a.368.368 0 0 1 0 .736z" fill="#FF4C4C"/></symbol><symbol id="sprite-delivery" viewBox="0 0 75 51"><title>delivery</title><path d="M28.4 2.17l20.44 20.56a4 4 0 0 1 0 5.65L28.27 48.85a4 4 0 0 1-5.65 0L2.17 28.28a4 4 0 0 1 0-5.66L22.74 2.17a4 4 0 0 1 5.66 0z" fill="#fff"/><path d="M72.91 23.72l-3.2-1.38-2.7-5.33a4.26 4.26 0 0 0-3.85-2.34h-4.68v-1.28a4.31 4.31 0 0 0-4.31-4.38H31.79a4.31 4.31 0 0 0-4.28 4.34v20.29a2.63 2.63 0 0 0 2.59 2.67h.61v.21a5.44 5.44 0 0 0 10.87.05v-.27h18.06v.21a5.44 5.44 0 0 0 10.87 0v-.27h1.35a2.65 2.65 0 0 0 2.65-2.64v-7.43a2.64 2.64 0 0 0-1.6-2.45zM36.14 39.89a3.34 3.34 0 1 1 3.34-3.34 3.33 3.33 0 0 1-3.33 3.33l-.01.01zm20.21-5.65H41.07a5.43 5.43 0 0 0-9.85 0h-1.07a.54.54 0 0 1-.54-.54v-5.44h26.74v5.98zm0-20.84v12.77H29.61V13.4a2.21 2.21 0 0 1 2.18-2.23h22.37a2.22 2.22 0 0 1 2.2 2.24l-.01-.01zm2.1 3.42h4.68a2.22 2.22 0 0 1 2 1.18l2.1 4.07h-8.77l-.01-5.25zm6.62 23.07a3.34 3.34 0 1 1 3.34-3.34 3.33 3.33 0 0 1-3.33 3.33l-.01.01zm7.34-6.23a.541.541 0 0 1-.5.58h-1.9a5.43 5.43 0 0 0-9.85 0h-1.7V24.17h10.3l3.33 1.47a.64.64 0 0 1 .34.57l-.02 7.45z" fill="#FF4C4C"/></symbol><symbol id="sprite-equally" viewBox="0 0 25 13"><title>equally</title><path d="M0 0h25v4H0V0zm0 9h25v4H0V9z" fill="#C4C4C4"/></symbol><symbol id="sprite-facebook" viewBox="0 0 10.75 21"><title>facebook</title><path class="cls-1" d="M7.19 21H2.88V10.5H0V6.88h2.88V4.75c0-3 .88-4.75 4.69-4.75h3.15v3.62h-2c-1.49 0-1.56.5-1.56 1.45v1.81h3.56l-.42 3.62H7.16z"/></symbol><symbol id="sprite-filter" viewBox="0 0 402.577 402.577"><title>filter</title><path d="M400.858 11.427C397.617 4.006 392.008.295 384.004.291H18.564c-7.993 0-13.61 3.715-16.846 11.136-3.234 7.801-1.903 14.467 3.999 19.985l140.757 140.753V310.92c0 4.955 1.809 9.232 5.424 12.854l73.085 73.083c3.429 3.614 7.71 5.428 12.851 5.428 2.282 0 4.66-.479 7.135-1.43 7.426-3.238 11.14-8.851 11.14-16.845V172.166L396.861 31.413c5.904-5.518 7.232-12.182 3.997-19.986z"/></symbol><symbol id="sprite-google" viewBox="0 0 21 19.31"><title>google</title><path class="cls-1" d="M11.46 0H5.97a4.75 4.75 0 0 0-4.78 4.38 4.14 4.14 0 0 0 4.18 4.35h.51a2.65 2.65 0 0 0-.28 1.12 2.4 2.4 0 0 0 .75 1.65h-1c-3 0-5.4 2.11-5.4 4.31s2.57 3.51 5.62 3.51c3.48 0 5.4-2.15 5.4-4.31a4.29 4.29 0 0 0-1.92-3.89c-.49-.38-1.44-1.31-1.44-1.86s.16-.95 1.05-1.71a4.11 4.11 0 0 0 1.55-3.12A3.63 3.63 0 0 0 8.44.97h1.82zM9.54 14.63a2.48 2.48 0 0 1 .07.61c0 1.75-1 3.11-4 3.11a3.38 3.38 0 0 1-3.63-3.2c0-1.71 1.89-3.13 4-3.11a4.63 4.63 0 0 1 1.37.24c1.14.92 1.96 1.36 2.19 2.35zM6.17 8.12c-1.42-.05-2.76-1.73-3-3.75S3.88.8 5.29.84s2.76 1.67 3 3.7-.71 3.66-2.12 3.58zm10.89-3.84V0h-1.31v4.28h-3.94v1.43h3.94V10h1.31V5.71H21V4.28z"/></symbol><symbol id="sprite-headphones" viewBox="0 0 61 51"><title>headphones</title><path d="M28.4 2.17l20.44 20.56a4 4 0 0 1 0 5.65L28.27 48.85a4 4 0 0 1-5.65 0L2.17 28.28a4 4 0 0 1 0-5.66L22.74 2.17a4.001 4.001 0 0 1 5.66 0z" fill="#fff"/><path d="M56.35 21.17v-1.39a12.68 12.68 0 0 0-3.34-8.71 11.43 11.43 0 0 0-8.47-3.64h-1.11a11.43 11.43 0 0 0-8.42 3.64 12.69 12.69 0 0 0-3.32 8.71v1.39a5 5 0 0 0-4.64 5v2.17a5 5 0 0 0 5 5h2.8a.93.93 0 0 0 .91-.92v-10.3a.91.91 0 0 0-.91-.91h-1.3v-1.38c0-6 4.28-10.53 9.95-10.53h1.15c5.68 0 10 4.53 10 10.53v1.34h-1.43a.91.91 0 0 0-.91.91v10.3a.91.91 0 0 0 .91.91h1.28c-.38 4.75-3.65 5.85-5.17 6.1a3.2 3.2 0 0 0-3-2.21h-2.32a3.21 3.21 0 0 0 0 6.41h2.28a3.221 3.221 0 0 0 3.06-2.36 8.623 8.623 0 0 0 3.12-1.06c1.65-1 3.6-2.93 3.86-6.9a5 5 0 0 0 4.67-5v-2.1a5 5 0 0 0-4.65-5zm-22.47 10.3h-1.87a3.18 3.18 0 0 1-3.16-3.16v-2.14a3.16 3.16 0 0 1 3.16-3.16h1.89l-.02 8.46zm12.41 10.29h-2.28a1.38 1.38 0 0 1-.23-2.75h2.51a1.382 1.382 0 0 1 1.451 1.799 1.38 1.38 0 0 1-1.221.951h-.23zm12.89-13.45a3.16 3.16 0 0 1-3.17 3.16h-1.87v-8.46h1.87a3.15 3.15 0 0 1 3.15 3.15v2.15h.02z" fill="#FF4C4C"/></symbol><symbol id="sprite-heart-fill" viewBox="0 0 1024 1024"><title/><path d="M940.799 147.31c-53.729-53.732-125.156-83.3-201.144-83.3-75.999 0-147.433 29.568-201.182 83.3l-26.476 26.483-26.477-26.483c-53.732-53.732-125.183-83.3-201.166-83.3-75.98 0-147.436 29.568-201.162 83.3-110.926 110.937-110.926 291.434 0 402.327l397.477 397.479c6.499 6.523 14.59 10.518 23.042 12.055 2.834.56 5.685.819 8.541.819 11.245 0 22.508-4.289 31.072-12.874L940.8 549.637c110.931-110.894 110.931-291.391-.002-402.327z"/></symbol><symbol id="sprite-heart-outline-menu" viewBox="0 0 15 15"><title>heart-outline-menu</title><g clip-path="url(#clip0)"><path d="M13.781 2.158a4.14 4.14 0 0 0-2.946-1.22 4.14 4.14 0 0 0-2.947 1.22l-.388.388-.388-.388A4.14 4.14 0 0 0 4.165.938a4.14 4.14 0 0 0-2.946 1.22 4.172 4.172 0 0 0 0 5.893l5.822 5.823a.634.634 0 0 0 .463.188.64.64 0 0 0 .455-.188L13.78 8.05a4.172 4.172 0 0 0 0-5.893zm-.91 4.983L7.5 12.512l-5.371-5.37a2.883 2.883 0 0 1 0-4.074 2.861 2.861 0 0 1 2.036-.843c.77 0 1.493.3 2.036.843l.844.844a.663.663 0 0 0 .91 0l.843-.844a2.86 2.86 0 0 1 2.037-.843c.769 0 1.492.3 2.036.843a2.883 2.883 0 0 1 0 4.073z"/></g><defs><clipPath id="clip0"><path fill="#fff" d="M0 0h15v15H0z"/></clipPath></defs></symbol><symbol id="sprite-heart-outline" viewBox="0 0 1024 1024"><title/><path d="M940.799 147.31c-53.729-53.732-125.156-83.3-201.144-83.3-75.999 0-147.433 29.568-201.182 83.3l-26.476 26.483-26.477-26.483c-53.732-53.732-125.183-83.3-201.166-83.3-75.98 0-147.436 29.568-201.162 83.3-110.926 110.937-110.926 291.434 0 402.327l397.477 397.479c6.499 6.523 14.59 10.518 23.042 12.055 2.834.56 5.685.819 8.541.819 11.245 0 22.508-4.289 31.072-12.874L940.8 549.637c110.931-110.894 110.931-291.391-.002-402.327zm-62.142 340.188L512 854.161 145.335 487.498c-76.658-76.648-76.658-201.357 0-278.045 37.131-37.127 86.519-57.548 139.021-57.548 52.508 0 101.881 20.421 139 57.548l57.572 57.591c16.503 16.478 45.661 16.478 62.161 0l57.55-57.591c37.121-37.127 86.497-57.548 139.022-57.548 52.507 0 101.878 20.421 138.999 57.548 76.667 76.688 76.667 201.396 0 278.045z"/></symbol><symbol id="sprite-information" viewBox="0 0 15 15"><title>information</title><g clip-path="url(#clip0)"><path d="M7.5 5.222a.756.756 0 1 0 0-1.512.756.756 0 0 0 0 1.512z"/><path d="M8.84 10.207h-.802V7.196a.538.538 0 0 0-.538-.538H6.16a.538.538 0 0 0 0 1.075h.802v3.012c0 .297.241.537.538.537h1.341a.537.537 0 1 0 0-1.075z" fill="#ABABAB"/><path d="M7.5.001C3.364.001 0 3.365 0 7.501 0 11.636 3.364 15 7.5 15S15 11.636 15 7.5C15 3.365 11.636 0 7.5 0zm0 13.925A6.432 6.432 0 0 1 1.075 7.5 6.432 6.432 0 0 1 7.5 1.076a6.432 6.432 0 0 1 6.425 6.425A6.432 6.432 0 0 1 7.5 13.926z"/></g><defs><clipPath id="clip0"><path fill="#fff" d="M0 0h15v15H0z"/></clipPath></defs></symbol><symbol id="sprite-insta" viewBox="0 0 18 18.76"><title>insta</title><path class="cls-1" d="M15.01 0h-12a3.06 3.06 0 0 0-3 3.11v12.53a3.06 3.06 0 0 0 3 3.12h12a3.07 3.07 0 0 0 3-3.12V3.12a3.06 3.06 0 0 0-3-3.12zM5.76 8.21h6.47a3.46 3.46 0 0 1 .19 1.17 3.43 3.43 0 1 1-6.85 0 3.46 3.46 0 0 1 .19-1.17zm10 0v7a1.15 1.15 0 0 1-1.13 1.17H3.37a1.14 1.14 0 0 1-1.12-1.17v-7h1.76a5 5 0 0 0-.13 1.17 5.12 5.12 0 1 0 10.23 0 5.59 5.59 0 0 0-.12-1.17zm0-4.11a.59.59 0 0 1-.57.59h-1.12a.58.58 0 0 1-.56-.59V2.93a.58.58 0 0 1 .56-.59h1.12a.59.59 0 0 1 .57.59z"/></symbol><symbol id="sprite-list-grid" viewBox="0 0 83 83"><title>list-grid</title><path d="M10.375 6.917H3.458C1.383 6.917 0 8.3 0 10.375v6.917c0 2.075 1.383 3.458 3.458 3.458h6.917c2.075 0 3.458-1.383 3.458-3.458v-6.917c0-2.075-1.383-3.458-3.458-3.458zm0 27.666H3.458C1.383 34.583 0 35.967 0 38.042v6.916c0 2.075 1.383 3.459 3.458 3.459h6.917c2.075 0 3.458-1.384 3.458-3.459v-6.916c0-2.075-1.383-3.459-3.458-3.459zm0 27.667H3.458C1.383 62.25 0 63.633 0 65.708v6.917c0 2.075 1.383 3.458 3.458 3.458h6.917c2.075 0 3.458-1.383 3.458-3.458v-6.917c0-2.075-1.383-3.458-3.458-3.458zM79.542 6.917H31.125c-2.075 0-3.458 1.383-3.458 3.458v6.917c0 2.075 1.383 3.458 3.458 3.458h48.417c2.075 0 3.458-1.383 3.458-3.458v-6.917c0-2.075-1.383-3.458-3.458-3.458zm0 27.666H31.125c-2.075 0-3.458 1.384-3.458 3.459v6.916c0 2.075 1.383 3.459 3.458 3.459h48.417c2.075 0 3.458-1.384 3.458-3.459v-6.916c0-2.075-1.383-3.459-3.458-3.459zm0 27.667H31.125c-2.075 0-3.458 1.383-3.458 3.458v6.917c0 2.075 1.383 3.458 3.458 3.458h48.417c2.075 0 3.458-1.383 3.458-3.458v-6.917c0-2.075-1.383-3.458-3.458-3.458z"/></symbol><symbol id="sprite-list" viewBox="0 0 59 51"><title>list</title><path d="M28.4 2.17l20.44 20.56a4 4 0 0 1 0 5.65L28.27 48.85a4 4 0 0 1-5.65 0L2.17 28.28a4 4 0 0 1 0-5.66L22.74 2.17a4 4 0 0 1 5.66 0z" fill="#fff"/><path d="M42.5 29.5l-4.26 4.246L36.5 32c-.5-.5-1.148-.612-1.42-.34-.736.528-.307 1.32 0 1.65l2.34 2.33a1.152 1.152 0 0 0 .82.34 1.169 1.169 0 0 0 .83-.34l4.65-4.63c.26-.337.624-1.11 0-1.51-.624-.4-1.073-.167-1.22 0zm.326-9.28l-4.26 4.247-1.74-1.746c-.5-.5-1.148-.612-1.42-.34-.736.528-.306 1.32 0 1.65l2.34 2.33a1.15 1.15 0 0 0 .82.34 1.17 1.17 0 0 0 .83-.34l4.65-4.63c.26-.337.624-1.11 0-1.51-.624-.4-1.073-.167-1.22 0zm9.404 1.79h-4.67c-.31 0-.608.105-.827.293a.933.933 0 0 0-.343.707c0 .265.123.52.343.707.22.188.517.293.827.293h4.67c.31 0 .608-.105.827-.293a.933.933 0 0 0 .343-.707.933.933 0 0 0-.343-.707 1.278 1.278 0 0 0-.827-.293zm0 9.339h-4.67c-.29.023-.56.138-.757.322a.923.923 0 0 0-.305.672c0 .25.109.49.305.673.197.184.467.3.757.322h4.67c.153.012.307-.001.454-.04a1.22 1.22 0 0 0 .402-.185 1.05 1.05 0 0 0 .288-.302.86.86 0 0 0 .084-.761.965.965 0 0 0-.216-.343 1.156 1.156 0 0 0-.354-.246 1.324 1.324 0 0 0-.658-.112z" fill="#FF4C4C"/><path fill-rule="evenodd" clip-rule="evenodd" d="M51.06 10.35h4.67a2.34 2.34 0 0 1 2.33 2.33v28a2.33 2.33 0 0 1-2.33 2.33H32.4a2.34 2.34 0 0 1-2.34-2.35v-28a2.33 2.33 0 0 1 2.34-2.32h4.66V9.18a1.17 1.17 0 0 1 1.17-1.17H41c0-.51.408-1.093 1-1.51.592-.417 1.276-.5 2-.5s1.408.083 2 .5c.592.417 1 1 1 1.51h2.91a1.16 1.16 0 0 1 1.15 1.16v1.18zM32 41h24V12h-4.94v1.85a1.16 1.16 0 0 1-1.16 1.16H38.23a1.18 1.18 0 0 1-1.17-1.16V12H32v29zm9.5-31H39v3h10V9.997l-2.5.004c-1.2 0-1.27-.567-1.27-.831a1.17 1.17 0 0 0-2.067-.856c-.197.24-.263.587-.263.856 0 .849-.72.838-1.245.831L41.5 10z" fill="#FF4C4C"/></symbol><symbol id="sprite-menu" viewBox="0 0 14 14"><title>menu</title><path d="M4.834 0H1.62A1.62 1.62 0 0 0 0 1.619v3.215a1.62 1.62 0 0 0 1.619 1.62h3.215a1.62 1.62 0 0 0 1.62-1.62V1.62A1.62 1.62 0 0 0 4.833 0zm.525 4.834c0 .29-.235.525-.525.525H1.62a.526.526 0 0 1-.525-.525V1.62c0-.29.235-.525.525-.525h3.215c.29 0 .525.235.525.525v3.215zM12.36 0H9.187c-.905 0-1.641.736-1.641 1.64v3.172c0 .905.736 1.641 1.64 1.641h3.172c.905 0 1.641-.736 1.641-1.64V1.64A1.64 1.64 0 0 0 12.36 0zm.546 4.813a.547.547 0 0 1-.547.546H9.188a.548.548 0 0 1-.547-.546V1.64c0-.302.245-.547.546-.547h3.172c.302 0 .547.245.547.547v3.171zM4.834 7.547H1.62A1.62 1.62 0 0 0 0 9.166v3.215A1.62 1.62 0 0 0 1.619 14h3.215a1.62 1.62 0 0 0 1.62-1.619V9.166a1.62 1.62 0 0 0-1.62-1.62zm.525 4.834c0 .29-.235.525-.525.525H1.62a.526.526 0 0 1-.525-.525V9.166c0-.29.235-.525.525-.525h3.215c.29 0 .525.235.525.525v3.215zm7.001-4.834H9.187c-.905 0-1.641.736-1.641 1.64v3.172c0 .905.736 1.641 1.64 1.641h3.172c.905 0 1.641-.736 1.641-1.64V9.187c0-.905-.736-1.641-1.64-1.641zm.546 4.812a.547.547 0 0 1-.547.547H9.188a.547.547 0 0 1-.547-.547V9.188c0-.302.245-.547.546-.547h3.172c.302 0 .547.245.547.546v3.172z"/></symbol><symbol id="sprite-nova_poshta" viewBox="0 0 17 17"><title>nova_poshta</title><path d="M8.964.192a.656.656 0 0 0-.928 0L4.144 4.084h2.983v3.282h2.625V4.084h3.104L8.964.192zM.192 8.036a.656.656 0 0 0 0 .928l3.653 3.653V4.383L.192 8.036zm16.616.928a.656.656 0 0 0 0-.928l-3.774-3.773v8.475l3.774-3.774zm-8.772 7.844a.656.656 0 0 0 .928 0l3.535-3.535H9.752V9.991H7.127v3.282H4.5l3.535 3.535z" fill="#FF4C4C"/></symbol><symbol id="sprite-percentage" viewBox="0 0 13 13"><title>percentage</title><path d="M12.82.181a.61.61 0 0 0-.862 0L.183 11.956a.61.61 0 1 0 .863.863L12.82 1.044a.61.61 0 0 0 0-.863zM2.898.007A2.902 2.902 0 0 0 0 2.905c0 1.598 1.3 2.898 2.898 2.898s2.898-1.3 2.898-2.898S4.496.007 2.898.007zm0 4.576A1.68 1.68 0 0 1 1.22 2.905a1.68 1.68 0 0 1 1.678-1.678 1.68 1.68 0 0 1 1.678 1.678 1.68 1.68 0 0 1-1.678 1.678zM10.102 7.2a2.902 2.902 0 0 0-2.898 2.9c0 1.598 1.3 2.898 2.898 2.898S13 11.697 13 10.1s-1.3-2.9-2.898-2.9zm0 4.577a1.68 1.68 0 0 1-1.678-1.678 1.68 1.68 0 0 1 1.678-1.678 1.68 1.68 0 0 1 1.678 1.678 1.68 1.68 0 0 1-1.678 1.678z"/></symbol><symbol id="sprite-phone-menu" viewBox="0 0 16 16"><title>phone-menu</title><g clip-path="url(#clip0)"><path d="M7.888 14.074c-2.5-2.26-4.144-4.272-5.861-7.172-1.083-1.83-.914-3.524.465-4.651L4.026.998a1.467 1.467 0 0 1 2.2.407l.929 1.62a1.462 1.462 0 0 1-.345 1.864l-.974.796c.69 1.216 2.952 3.983 4.004 4.9l.974-.795a1.462 1.462 0 0 1 1.895.032l1.402 1.23a1.467 1.467 0 0 1-.04 2.239l-1.533 1.254c-1.479 1.208-3.193.847-4.65-.47zm-4.92-7.73c1.656 2.799 3.242 4.738 5.653 6.919 1.016.918 2.161 1.304 3.225.434l1.534-1.252a.371.371 0 0 0 .01-.57l-1.402-1.23a.372.372 0 0 0-.482-.01l-1.297 1.06a.546.546 0 0 1-.58.07c-1.018-.48-4.725-5.015-4.992-6.11a.547.547 0 0 1 .185-.554l1.296-1.06a.372.372 0 0 0 .088-.474l-.928-1.619a.373.373 0 0 0-.56-.103L3.184 3.098c-1.064.87-.913 2.07-.217 3.246z" fill="#ABABAB"/></g><defs><clipPath id="clip0"><path fill="#fff" transform="rotate(5.746 -2.464 17.463)" d="M0 0h14v14H0z"/></clipPath></defs></symbol><symbol id="sprite-phone" viewBox="0 0 92 92"><title>phone</title><path d="M49.262 85.783C31.425 72.646 19.355 60.578 6.217 42.741c-8.284-11.248-8.29-22.436-.018-30.715l9.204-9.203a9.643 9.643 0 0 1 14.662 1.212l7.132 9.98a9.61 9.61 0 0 1-1.028 12.421l-5.846 5.845c5.312 7.497 21.923 24.099 29.408 29.407l5.845-5.845a9.61 9.61 0 0 1 12.412-1.037l9.976 7.125a9.644 9.644 0 0 1 1.213 14.66l-9.2 9.212c-8.873 8.871-20.318 7.637-30.715-.02zM12.005 38.48c12.672 17.206 24.313 28.846 41.519 41.518 7.242 5.333 14.987 7.107 21.371.719l9.202-9.199a2.45 2.45 0 0 0-.309-3.73l-9.976-7.127a2.444 2.444 0 0 0-3.158.256l-7.78 7.778a3.594 3.594 0 0 1-3.742.847c-6.977-2.471-34.198-29.685-36.67-36.67a3.594 3.594 0 0 1 .846-3.741l7.78-7.781a2.444 2.444 0 0 0 .261-3.16l-7.132-9.976a2.45 2.45 0 0 0-3.732-.307l-9.204 9.202C4.896 23.494 6.674 31.24 12 38.48h.005z"/></symbol><symbol id="sprite-place" viewBox="0 0 512 512"><title>place</title><path d="M425.951 89.021C386.864 32.451 324.917 0 256.006 0S125.148 32.451 86.061 89.021c-38.895 56.284-47.876 127.541-24.072 190.496 6.367 17.192 16.488 33.895 30.01 49.547l150.378 176.634A17.895 17.895 0 0 0 256.006 512a17.892 17.892 0 0 0 13.629-6.302l150.336-176.586c13.582-15.742 23.69-32.427 30.004-49.481 23.852-63.069 14.871-134.326-24.024-190.61zm-9.5 178.072c-4.869 13.158-12.818 26.167-23.613 38.68-.03.03-.06.06-.084.096L256.006 466.487 119.174 305.768c-10.789-12.502-18.738-25.51-23.655-38.794-19.686-52.065-12.215-110.981 19.991-157.592 32.307-46.76 83.519-73.578 140.496-73.578 56.976 0 108.182 26.817 140.49 73.578 32.212 46.611 39.689 105.527 19.955 157.711z" data-original="#000000" class="active-path" data-old_color="#ff4c4c" fill="#ff4c4c"/><path d="M256.006 106.219c-55.276 0-100.252 44.97-100.252 100.252s44.97 100.252 100.252 100.252 100.252-44.97 100.252-100.252c0-55.276-44.976-100.252-100.252-100.252zm0 164.699c-35.536 0-64.448-28.912-64.448-64.448 0-35.536 28.912-64.448 64.448-64.448 35.536 0 64.448 28.912 64.448 64.448s-28.912 64.448-64.448 64.448z" data-original="#000000" class="active-path" data-old_color="#ff4c4c" fill="#ff4c4c"/></symbol><symbol id="sprite-plus" viewBox="0 0 25 25"><title>plus</title><path d="M25 10.096v4.808H14.904V25h-4.808V14.904H0v-4.808h10.096V0h4.808v10.096H25z" fill="#9E9E9E" fill-opacity=".75"/></symbol><symbol id="sprite-profile" viewBox="0 0 87 87"><title>profile</title><path d="M43.357 48.572c12.857 0 23.286-10.43 23.286-23.286 0-12.857-10.429-23.215-23.286-23.215-12.857 0-23.285 10.43-23.285 23.215S30.5 48.57 43.356 48.57zm0-40.43c9.429 0 17.143 7.715 17.143 17.144 0 9.428-7.714 17.143-17.143 17.143-9.428 0-17.143-7.715-17.143-17.143 0-9.429 7.715-17.143 17.143-17.143zM3.071 84.929H83.93A3.049 3.049 0 0 0 87 81.857c0-16.071-13.071-29.214-29.214-29.214H29.214C13.143 52.643 0 65.714 0 81.857a3.049 3.049 0 0 0 3.071 3.072zm26.143-26.143h28.572c11.714 0 21.357 8.714 22.857 20H6.357c1.5-11.215 11.143-20 22.857-20z" fill="#F6980F"/></symbol><symbol id="sprite-refresh" viewBox="0 0 82 82"><title>refresh</title><g clip-path="url(#clip0)"><path d="M79.757 36.142a3.054 3.054 0 1 0-6.024 1.017c3.11 18.31-9.211 35.675-27.521 38.786-18.31 3.11-35.675-9.212-38.786-27.522-3.11-18.31 9.212-35.675 27.522-38.785a33.629 33.629 0 0 1 30.435 10.444L51.852 24.59a3.055 3.055 0 0 0-1.934 3.863v.001a3.055 3.055 0 0 0 3.863 1.934h.001l18.327-6.109a3.055 3.055 0 0 0 2.089-2.898V3.054a3.054 3.054 0 1 0-6.11 0v11.158C52.36-.75 27.48-.126 12.519 15.604c-14.96 15.73-14.337 40.61 1.393 55.57 15.73 14.962 40.61 14.338 55.57-1.392a39.307 39.307 0 0 0 10.276-33.64z" fill="#FF4C4C"/></g><defs><clipPath id="clip0"><path fill="#fff" d="M0 0h82v82H0z"/></clipPath></defs></symbol><symbol id="sprite-row-grid" viewBox="0 0 81 81"><title>row-grid</title><g clip-path="url(#clip0)"><path d="M22.142 2.518A2.514 2.514 0 0 0 19.625 0H2.673A2.514 2.514 0 0 0 .155 2.518v16.96a2.514 2.514 0 0 0 2.518 2.518h16.96a2.514 2.514 0 0 0 2.518-2.518V2.518h-.009zm29.348 0A2.514 2.514 0 0 0 48.971 0H32.02a2.514 2.514 0 0 0-2.518 2.518v16.96a2.514 2.514 0 0 0 2.518 2.518h16.952a2.514 2.514 0 0 0 2.517-2.518V2.518zm29.347 0A2.514 2.514 0 0 0 78.319 0H61.367a2.514 2.514 0 0 0-2.518 2.518v16.96a2.514 2.514 0 0 0 2.518 2.518h16.96a2.514 2.514 0 0 0 2.518-2.518V2.518h-.008zM22.142 32.024a2.514 2.514 0 0 0-2.517-2.518H2.673a2.514 2.514 0 0 0-2.518 2.518v16.952a2.514 2.514 0 0 0 2.518 2.518h16.96a2.514 2.514 0 0 0 2.518-2.518V32.024h-.009zm29.348 0a2.514 2.514 0 0 0-2.518-2.518H32.02a2.514 2.514 0 0 0-2.518 2.518v16.952a2.514 2.514 0 0 0 2.518 2.518h16.952a2.514 2.514 0 0 0 2.517-2.518V32.024zm29.347 0a2.514 2.514 0 0 0-2.518-2.518H61.367a2.514 2.514 0 0 0-2.518 2.518v16.952a2.514 2.514 0 0 0 2.518 2.518h16.96a2.514 2.514 0 0 0 2.518-2.518V32.024h-.008zM19.625 59.005H2.673a2.514 2.514 0 0 0-2.518 2.517v16.96A2.514 2.514 0 0 0 2.673 81h16.96a2.514 2.514 0 0 0 2.518-2.517v-16.96a2.532 2.532 0 0 0-2.526-2.519zm29.347 0H32.02a2.514 2.514 0 0 0-2.518 2.517v16.96A2.514 2.514 0 0 0 32.02 81h16.952a2.514 2.514 0 0 0 2.517-2.517v-16.96a2.52 2.52 0 0 0-2.517-2.519zm29.347 0H61.367a2.514 2.514 0 0 0-2.518 2.517v16.96A2.514 2.514 0 0 0 61.367 81h16.96a2.514 2.514 0 0 0 2.518-2.517v-16.96a2.532 2.532 0 0 0-2.526-2.519z"/></g><defs><clipPath id="clip0"><path fill="#fff" d="M0 0h81v81H0z"/></clipPath></defs></symbol><symbol id="sprite-search" viewBox="0 0 23 23"><title>search</title><g clip-path="url(#clip0)"><path d="M22.822 21.802l-5.541-5.527a9.829 9.829 0 0 0-.73-13.638 9.848 9.848 0 0 0-13.668.243 9.83 9.83 0 0 0-.244 13.656 9.846 9.846 0 0 0 13.65.73l5.541 5.536a.684.684 0 0 0 1.116-.227.692.692 0 0 0-.154-.764l.03-.01zM1.6 9.917a8.344 8.344 0 0 1 5.16-7.714 8.363 8.363 0 0 1 9.108 1.814 8.346 8.346 0 0 1-5.922 14.249 8.36 8.36 0 0 1-5.903-2.449 8.345 8.345 0 0 1-2.443-5.9z"/></g><defs><clipPath id="clip0"><path fill="#fff" d="M0 0h22.98v22.98H0z"/></clipPath></defs></symbol><symbol id="sprite-shopping-cart_menu" viewBox="0 0 16 16"><title>shopping-cart_menu</title><path d="M12.668 11.332c-1.1 0-1.995.895-1.995 1.995s.895 1.995 1.995 1.995 1.995-.895 1.995-1.995-.895-1.995-1.995-1.995zm0 2.793a.799.799 0 1 1 .002-1.598.799.799 0 0 1-.002 1.598zm3.205-10.504a.598.598 0 0 0-.471-.23H3.694l-.538-2.253a.599.599 0 0 0-.582-.46H.599a.598.598 0 1 0 0 1.197H2.1l1.945 8.14a.6.6 0 0 0 .582.459h9.317a.598.598 0 0 0 .581-.455l1.457-5.885a.6.6 0 0 0-.11-.513zm-2.396 5.656H5.101L3.98 4.588h10.656l-1.16 4.689zm-8.051 2.055c-1.1 0-1.995.895-1.995 1.995s.895 1.995 1.995 1.995 1.995-.895 1.995-1.995-.894-1.995-1.995-1.995zm0 2.793a.799.799 0 1 1 .002-1.598.799.799 0 0 1-.002 1.598z"/></symbol><symbol id="sprite-shopping-cart" viewBox="0 0 86 86"><title>shopping-cart</title><path d="M68.093 60.908c-5.913 0-10.723 4.81-10.723 10.723 0 5.913 4.81 10.723 10.723 10.723 5.912 0 10.723-4.81 10.723-10.723 0-5.913-4.81-10.723-10.723-10.723zm0 15.012a4.294 4.294 0 0 1-4.29-4.289 4.294 4.294 0 0 1 4.29-4.29 4.294 4.294 0 0 1 4.289 4.29 4.294 4.294 0 0 1-4.29 4.29zm17.223-56.457a3.213 3.213 0 0 0-2.532-1.234H19.857L16.962 6.115a3.218 3.218 0 0 0-3.129-2.47H3.217a3.217 3.217 0 1 0 0 6.434h8.077l10.455 43.747a3.217 3.217 0 0 0 3.129 2.47h50.078a3.216 3.216 0 0 0 3.122-2.443l7.828-31.634a3.22 3.22 0 0 0-.59-2.756zM72.44 49.862H27.417l-6.022-25.199h57.278L72.44 49.862zM29.167 60.908c-5.913 0-10.723 4.81-10.723 10.723 0 5.913 4.81 10.723 10.723 10.723 5.913 0 10.724-4.81 10.724-10.723 0-5.913-4.811-10.723-10.724-10.723zm0 15.012a4.294 4.294 0 0 1-4.289-4.289 4.294 4.294 0 0 1 4.29-4.29 4.294 4.294 0 0 1 4.288 4.29 4.294 4.294 0 0 1-4.289 4.29z"/></symbol><symbol id="sprite-star_active" viewBox="0 0 13 11.88"><title>star_active</title><path d="M6.52 0l2.12 3.73 4.36.8-3 3.12.55 4.23-4-1.81-4 1.81.55-4.23-3-3.12 4.35-.8L6.52 0" fill="#f49242" fill-rule="evenodd"/></symbol><symbol id="sprite-star" viewBox="0 0 13 12"><title>star</title><g clip-path="url(#clip0)"><path d="M6.524.817l1.768 3.11.092.163.184.033 3.628.666-2.484 2.584-.133.138.024.19.458 3.519-3.346-1.514-.165-.075-.165.075L3.04 11.22l.458-3.518.024-.19-.133-.14L.904 4.79l3.618-.666.186-.034.092-.165L6.524.817z"/></g><defs><clipPath id="clip0"><path d="M0 0h13v11.88H0z"/></clipPath></defs></symbol><symbol id="sprite-tag" viewBox="0 0 65 51"><title>tag</title><path d="M28.4 2.17l20.44 20.56a4 4 0 0 1 0 5.65L28.27 48.85a4 4 0 0 1-5.65 0L2.17 28.28a4 4 0 0 1 0-5.66L22.74 2.17a4 4 0 0 1 5.66 0z" fill="#fff"/><path d="M62.75 27.58L47.61 12.44a4.21 4.21 0 0 0-3-1.25h-.26l-10.94.72a2.4 2.4 0 0 0-2.24 2.26l-.26 3.89a7.543 7.543 0 0 1-1.56-1.2 6.91 6.91 0 0 1-2-4.11 4.3 4.3 0 0 1 1.09-3.58c1.86-1.86 5.28-1.45 7.65.91a1.011 1.011 0 0 0 1.43-1.43C34.35 5.51 29.64 5.1 27 7.75a6.23 6.23 0 0 0-1.71 5.16 8.85 8.85 0 0 0 2.62 5.34 9.602 9.602 0 0 0 2.85 2l-.32 4.87a4.22 4.22 0 0 0 1.24 3.28l15.14 15.14a5 5 0 0 0 3.59 1.47 5.062 5.062 0 0 0 3.6-1.47l8.78-8.77a5.062 5.062 0 0 0 0-7.16l-.04-.03zm-1.4 5.73l-8.79 8.78a3 3 0 0 1-2.15.89 3 3 0 0 1-2.15-.89L33.09 26.95a2.26 2.26 0 0 1-.65-1.72l.3-4.41.5.07h.75a6.051 6.051 0 0 0 4.41-1.72 1 1 0 0 0 0-1.41 1 1 0 0 0-1.41 0 4.25 4.25 0 0 1-3.53 1.14 5.658 5.658 0 0 1-.57-.09l.31-4.51a.37.37 0 0 1 .34-.34l11-.72h.15a2.189 2.189 0 0 1 1.57.65l15.09 15.12a2.998 2.998 0 0 1 0 4.3z" fill="#FF4C4C"/></symbol><symbol id="sprite-twitter" viewBox="0 0 20 17.37"><title>twitter</title><path class="cls-1" d="M20 2.06a7.51 7.51 0 0 1-2.35.69 4.34 4.34 0 0 0 1.8-2.43 7.81 7.81 0 0 1-2.6 1.07 4 4 0 0 0-3-1.39 4.26 4.26 0 0 0-4.1 4.39 4.71 4.71 0 0 0 .1 1A11.4 11.4 0 0 1 1.4.81a4.57 4.57 0 0 0 1.27 5.85 3.81 3.81 0 0 1-1.86-.55v.06a4.32 4.32 0 0 0 3.29 4.3 3.91 3.91 0 0 1-1.08.15 3.87 3.87 0 0 1-.77-.08 4.14 4.14 0 0 0 3.83 3.05 8 8 0 0 1-5.1 1.88 6.46 6.46 0 0 1-1-.07 11.07 11.07 0 0 0 6.29 2c7.55 0 11.68-6.69 11.68-12.48v-.57A8.7 8.7 0 0 0 20 2.06z"/></symbol><symbol id="sprite-web-page-home" viewBox="0 0 16 16"><title>web-page-home</title><path d="M.553 9.363h1.303v5.213a.56.56 0 0 0 .558.558h3.817a.56.56 0 0 0 .559-.558v-3.817h2.327v3.817a.56.56 0 0 0 .558.558h3.63a.56.56 0 0 0 .56-.558V9.363h1.582a.56.56 0 0 0 .512-.345.561.561 0 0 0-.121-.605l-7.28-7.382a.556.556 0 0 0-.782-.01L.171 8.405a.559.559 0 0 0-.13.614.545.545 0 0 0 .512.345zm7.596-7.15l5.958 6.033h-.801a.56.56 0 0 0-.559.558v5.213h-2.513V10.2a.56.56 0 0 0-.559-.558H6.231a.56.56 0 0 0-.558.558v3.817h-2.7V8.804a.56.56 0 0 0-.559-.558H1.93l6.22-6.033z"/></symbol></svg>